<mxfile host="65bd71144e">
    <diagram id="QH_6pC6tTYsVum_uQRVO" name="ページ1">
        <mxGraphModel dx="1132" dy="942" grid="1" gridSize="10" guides="1" tooltips="1" connect="1" arrows="1" fold="1" page="1" pageScale="1" pageWidth="500000" pageHeight="500000" math="0" shadow="0">
            <root>
                <mxCell id="0"/>
                <mxCell id="1" parent="0"/>
                <mxCell id="14" value="&lt;span style=&quot;font-family: Roboto, RobotoDraft, Helvetica, Arial, sans-serif; font-size: 13px;&quot;&gt;会員登録&lt;/span&gt;" style="text;html=1;strokeColor=#000000;fillColor=#FFFFFF;align=center;verticalAlign=middle;whiteSpace=wrap;rounded=0;labelBorderColor=#FFFFFF;labelBackgroundColor=#FFFFFF;fontColor=#000000;fontSize=13;" parent="1" vertex="1">
                    <mxGeometry x="320" y="80" width="80" height="80" as="geometry"/>
                </mxCell>
                <mxCell id="109" value="" style="edgeStyle=none;html=1;fontColor=#000000;align=center;fontSize=13;" parent="1" source="16" target="14" edge="1">
                    <mxGeometry relative="1" as="geometry"/>
                </mxCell>
                <mxCell id="16" value="ログイン" style="text;html=1;strokeColor=#000000;fillColor=#FFFFFF;align=center;verticalAlign=middle;whiteSpace=wrap;rounded=0;labelBorderColor=#FFFFFF;labelBackgroundColor=#FFFFFF;fontColor=#000000;fontSize=13;" parent="1" vertex="1">
                    <mxGeometry x="160" y="80" width="80" height="80" as="geometry"/>
                </mxCell>
                <mxCell id="154" style="edgeStyle=none;html=1;exitX=1;exitY=0.5;exitDx=0;exitDy=0;entryX=0;entryY=0.5;entryDx=0;entryDy=0;fontSize=13;align=center;" parent="1" source="17" target="16" edge="1">
                    <mxGeometry relative="1" as="geometry"/>
                </mxCell>
                <mxCell id="17" value="&lt;span style=&quot;font-family: Roboto, RobotoDraft, Helvetica, Arial, sans-serif; font-size: 13px;&quot;&gt;トップ&lt;br style=&quot;font-size: 13px;&quot;&gt;商品一覧&lt;/span&gt;" style="text;html=1;strokeColor=#000000;fillColor=#FFFFFF;align=center;verticalAlign=middle;whiteSpace=wrap;rounded=0;labelBorderColor=#FFFFFF;labelBackgroundColor=#FFFFFF;fontColor=#000000;fontSize=13;" parent="1" vertex="1">
                    <mxGeometry y="80" width="80" height="80" as="geometry"/>
                </mxCell>
                <mxCell id="102" value="" style="edgeStyle=none;html=1;fontColor=#000000;align=center;fontSize=13;" parent="1" source="91" target="96" edge="1">
                    <mxGeometry relative="1" as="geometry"/>
                </mxCell>
                <mxCell id="91" value="&lt;span style=&quot;font-family: Roboto, RobotoDraft, Helvetica, Arial, sans-serif; font-size: 12px;&quot;&gt;プロフィール編集&lt;/span&gt;" style="text;html=1;strokeColor=#000000;fillColor=#FFFFFF;align=center;verticalAlign=middle;whiteSpace=wrap;rounded=0;labelBorderColor=#FFFFFF;labelBackgroundColor=#FFFFFF;fontColor=#000000;fontSize=12;" parent="1" vertex="1">
                    <mxGeometry x="160" y="560" width="80" height="80" as="geometry"/>
                </mxCell>
                <mxCell id="106" value="" style="edgeStyle=none;html=1;fontColor=#000000;align=center;fontSize=13;" parent="1" source="92" target="105" edge="1">
                    <mxGeometry relative="1" as="geometry"/>
                </mxCell>
                <mxCell id="173" value="" style="edgeStyle=none;html=1;" parent="1" source="92" target="172" edge="1">
                    <mxGeometry relative="1" as="geometry"/>
                </mxCell>
                <mxCell id="92" value="&lt;div style=&quot;font-size: 13px;&quot;&gt;&lt;font face=&quot;Roboto, RobotoDraft, Helvetica, Arial, sans-serif&quot; style=&quot;font-size: 13px;&quot;&gt;&lt;span style=&quot;font-size: 13px;&quot;&gt;カート表示&lt;/span&gt;&lt;/font&gt;&lt;/div&gt;" style="text;html=1;strokeColor=#000000;fillColor=#FFFFFF;align=center;verticalAlign=middle;whiteSpace=wrap;rounded=0;labelBorderColor=#FFFFFF;labelBackgroundColor=#FFFFFF;fontColor=#000000;fontSize=13;" parent="1" vertex="1">
                    <mxGeometry x="160" y="400" width="80" height="80" as="geometry"/>
                </mxCell>
                <mxCell id="175" value="" style="edgeStyle=none;html=1;" parent="1" source="94" target="92" edge="1">
                    <mxGeometry relative="1" as="geometry"/>
                </mxCell>
                <mxCell id="94" value="&lt;div style=&quot;font-size: 13px;&quot;&gt;&lt;font face=&quot;Roboto, RobotoDraft, Helvetica, Arial, sans-serif&quot; style=&quot;font-size: 13px;&quot;&gt;&lt;span style=&quot;font-size: 13px;&quot;&gt;商品詳細&lt;/span&gt;&lt;/font&gt;&lt;/div&gt;" style="text;html=1;strokeColor=#000000;fillColor=#FFFFFF;align=center;verticalAlign=middle;whiteSpace=wrap;rounded=0;labelBorderColor=#FFFFFF;labelBackgroundColor=#FFFFFF;fontColor=#000000;fontSize=13;" parent="1" vertex="1">
                    <mxGeometry x="160" y="240" width="80" height="80" as="geometry"/>
                </mxCell>
                <mxCell id="95" value="&lt;font face=&quot;Roboto, RobotoDraft, Helvetica, Arial, sans-serif&quot; style=&quot;font-size: 13px;&quot;&gt;&lt;span style=&quot;font-size: 13px;&quot;&gt;購入履歴&lt;br style=&quot;font-size: 13px;&quot;&gt;一覧&lt;/span&gt;&lt;/font&gt;" style="text;html=1;strokeColor=#000000;fillColor=#FFFFFF;align=center;verticalAlign=middle;whiteSpace=wrap;rounded=0;labelBorderColor=#FFFFFF;labelBackgroundColor=#FFFFFF;fontColor=#000000;fontSize=13;" parent="1" vertex="1">
                    <mxGeometry x="160" y="720" width="80" height="80" as="geometry"/>
                </mxCell>
                <mxCell id="177" value="" style="edgeStyle=none;html=1;" edge="1" parent="1" source="96" target="176">
                    <mxGeometry relative="1" as="geometry"/>
                </mxCell>
                <mxCell id="96" value="&lt;span style=&quot;font-family: Roboto, RobotoDraft, Helvetica, Arial, sans-serif; font-size: 13px;&quot;&gt;パスワードリセット&lt;br style=&quot;font-size: 13px;&quot;&gt;リクエスト&lt;/span&gt;" style="text;html=1;strokeColor=#000000;fillColor=#FFFFFF;align=center;verticalAlign=middle;whiteSpace=wrap;rounded=0;labelBorderColor=#FFFFFF;labelBackgroundColor=#FFFFFF;fontColor=#000000;fontSize=13;" parent="1" vertex="1">
                    <mxGeometry x="320" y="560" width="80" height="80" as="geometry"/>
                </mxCell>
                <mxCell id="97" value="&lt;span style=&quot;font-family: Roboto, RobotoDraft, Helvetica, Arial, sans-serif; font-size: 13px;&quot;&gt;パスワードリセット&lt;/span&gt;" style="text;html=1;strokeColor=#000000;fillColor=#FFFFFF;align=center;verticalAlign=middle;whiteSpace=wrap;rounded=0;labelBorderColor=#FFFFFF;labelBackgroundColor=#FFFFFF;fontColor=#000000;fontSize=13;" parent="1" vertex="1">
                    <mxGeometry x="640" y="560" width="80" height="80" as="geometry"/>
                </mxCell>
                <mxCell id="105" value="&lt;font face=&quot;Roboto, RobotoDraft, Helvetica, Arial, sans-serif&quot; style=&quot;font-size: 13px;&quot;&gt;&lt;span style=&quot;font-size: 13px;&quot;&gt;購入画面&lt;/span&gt;&lt;/font&gt;" style="text;html=1;strokeColor=#000000;fillColor=#FFFFFF;align=center;verticalAlign=middle;whiteSpace=wrap;rounded=0;labelBorderColor=#FFFFFF;labelBackgroundColor=#FFFFFF;fontColor=#000000;fontSize=13;" parent="1" vertex="1">
                    <mxGeometry x="320" y="400" width="80" height="80" as="geometry"/>
                </mxCell>
                <mxCell id="119" value="" style="edgeStyle=none;html=1;fontColor=#000000;align=center;fontSize=13;" parent="1" source="114" target="118" edge="1">
                    <mxGeometry relative="1" as="geometry"/>
                </mxCell>
                <mxCell id="114" value="&lt;div style=&quot;font-size: 13px;&quot;&gt;&lt;font face=&quot;Roboto, RobotoDraft, Helvetica, Arial, sans-serif&quot; style=&quot;font-size: 13px;&quot;&gt;&lt;span style=&quot;font-size: 13px;&quot;&gt;商品出品&lt;/span&gt;&lt;/font&gt;&lt;/div&gt;&lt;div style=&quot;font-size: 13px;&quot;&gt;&lt;span style=&quot;font-size: 13px; font-family: Roboto, RobotoDraft, Helvetica, Arial, sans-serif;&quot;&gt;（管理者）&lt;/span&gt;&lt;/div&gt;" style="text;html=1;strokeColor=#000000;fillColor=#FFFFFF;align=center;verticalAlign=middle;whiteSpace=wrap;rounded=0;labelBorderColor=#FFFFFF;labelBackgroundColor=#FFFFFF;fontColor=#000000;fontSize=13;" parent="1" vertex="1">
                    <mxGeometry x="160" y="880" width="80" height="80" as="geometry"/>
                </mxCell>
                <mxCell id="118" value="&lt;div style=&quot;font-size: 12px;&quot;&gt;&lt;font style=&quot;font-size: 12px;&quot; face=&quot;Roboto, RobotoDraft, Helvetica, Arial, sans-serif&quot;&gt;商品出品完了&lt;/font&gt;&lt;/div&gt;&lt;div style=&quot;font-size: 12px;&quot;&gt;&lt;span style=&quot;font-family: Roboto, RobotoDraft, Helvetica, Arial, sans-serif; font-size: 12px;&quot;&gt;&lt;font style=&quot;font-size: 12px;&quot;&gt;（管理者）&lt;/font&gt;&lt;/span&gt;&lt;/div&gt;" style="text;html=1;strokeColor=#000000;fillColor=#FFFFFF;align=center;verticalAlign=middle;whiteSpace=wrap;rounded=0;labelBorderColor=#FFFFFF;labelBackgroundColor=#FFFFFF;fontColor=#000000;fontSize=12;" parent="1" vertex="1">
                    <mxGeometry x="320" y="880" width="80" height="80" as="geometry"/>
                </mxCell>
                <mxCell id="162" value="" style="edgeStyle=segmentEdgeStyle;endArrow=classic;html=1;curved=0;rounded=0;endSize=8;startSize=8;fontSize=13;exitX=0.5;exitY=0;exitDx=0;exitDy=0;" parent="1" source="14" edge="1">
                    <mxGeometry width="50" height="50" relative="1" as="geometry">
                        <mxPoint x="520" y="80" as="sourcePoint"/>
                        <mxPoint x="40" y="80" as="targetPoint"/>
                        <Array as="points">
                            <mxPoint x="360" y="40"/>
                            <mxPoint x="40" y="40"/>
                        </Array>
                    </mxGeometry>
                </mxCell>
                <mxCell id="164" value="" style="edgeStyle=segmentEdgeStyle;endArrow=classic;html=1;curved=0;rounded=0;endSize=8;startSize=8;fontSize=13;entryX=0;entryY=0.5;entryDx=0;entryDy=0;" parent="1" target="94" edge="1">
                    <mxGeometry width="50" height="50" relative="1" as="geometry">
                        <mxPoint x="120" y="120" as="sourcePoint"/>
                        <mxPoint x="140" y="200" as="targetPoint"/>
                        <Array as="points">
                            <mxPoint x="120" y="280"/>
                        </Array>
                    </mxGeometry>
                </mxCell>
                <mxCell id="165" value="" style="edgeStyle=segmentEdgeStyle;endArrow=classic;html=1;curved=0;rounded=0;endSize=8;startSize=8;fontSize=13;entryX=0;entryY=0.5;entryDx=0;entryDy=0;" parent="1" edge="1">
                    <mxGeometry width="50" height="50" relative="1" as="geometry">
                        <mxPoint x="120" y="280" as="sourcePoint"/>
                        <mxPoint x="160" y="440" as="targetPoint"/>
                        <Array as="points">
                            <mxPoint x="120" y="440"/>
                        </Array>
                    </mxGeometry>
                </mxCell>
                <mxCell id="166" value="" style="edgeStyle=segmentEdgeStyle;endArrow=classic;html=1;curved=0;rounded=0;endSize=8;startSize=8;fontSize=13;entryX=0;entryY=0.5;entryDx=0;entryDy=0;" parent="1" edge="1">
                    <mxGeometry width="50" height="50" relative="1" as="geometry">
                        <mxPoint x="120" y="440" as="sourcePoint"/>
                        <mxPoint x="160" y="600" as="targetPoint"/>
                        <Array as="points">
                            <mxPoint x="120" y="600"/>
                        </Array>
                    </mxGeometry>
                </mxCell>
                <mxCell id="167" value="" style="edgeStyle=segmentEdgeStyle;endArrow=classic;html=1;curved=0;rounded=0;endSize=8;startSize=8;fontSize=13;entryX=0;entryY=0.5;entryDx=0;entryDy=0;" parent="1" edge="1">
                    <mxGeometry width="50" height="50" relative="1" as="geometry">
                        <mxPoint x="120" y="760" as="sourcePoint"/>
                        <mxPoint x="160" y="920" as="targetPoint"/>
                        <Array as="points">
                            <mxPoint x="120" y="920"/>
                        </Array>
                    </mxGeometry>
                </mxCell>
                <mxCell id="168" value="" style="edgeStyle=segmentEdgeStyle;endArrow=classic;html=1;curved=0;rounded=0;endSize=8;startSize=8;fontSize=13;entryX=0;entryY=0.5;entryDx=0;entryDy=0;" parent="1" edge="1">
                    <mxGeometry width="50" height="50" relative="1" as="geometry">
                        <mxPoint x="120" y="600" as="sourcePoint"/>
                        <mxPoint x="160" y="760" as="targetPoint"/>
                        <Array as="points">
                            <mxPoint x="120" y="760"/>
                        </Array>
                    </mxGeometry>
                </mxCell>
                <mxCell id="171" value="" style="edgeStyle=segmentEdgeStyle;endArrow=classic;html=1;curved=0;rounded=0;endSize=8;startSize=8;fontSize=13;" parent="1" edge="1">
                    <mxGeometry width="50" height="50" relative="1" as="geometry">
                        <mxPoint x="200" y="80" as="sourcePoint"/>
                        <mxPoint x="40" y="80" as="targetPoint"/>
                        <Array as="points">
                            <mxPoint x="200" y="80"/>
                            <mxPoint x="200" y="40"/>
                            <mxPoint x="40" y="40"/>
                        </Array>
                    </mxGeometry>
                </mxCell>
                <mxCell id="172" value="&lt;div style=&quot;font-size: 13px;&quot;&gt;&lt;font face=&quot;Roboto, RobotoDraft, Helvetica, Arial, sans-serif&quot; style=&quot;font-size: 13px;&quot;&gt;&lt;span style=&quot;font-size: 13px;&quot;&gt;カート表示&lt;/span&gt;&lt;/font&gt;&lt;/div&gt;" style="text;html=1;strokeColor=#000000;fillColor=#FFFFFF;align=center;verticalAlign=middle;whiteSpace=wrap;rounded=0;labelBorderColor=#FFFFFF;labelBackgroundColor=#FFFFFF;fontColor=#000000;fontSize=13;" parent="1" vertex="1">
                    <mxGeometry x="320" y="400" width="80" height="80" as="geometry"/>
                </mxCell>
                <mxCell id="178" value="" style="edgeStyle=none;html=1;" edge="1" parent="1" source="176" target="97">
                    <mxGeometry relative="1" as="geometry"/>
                </mxCell>
                <mxCell id="176" value="&lt;font style=&quot;font-size: 13px;&quot; face=&quot;Roboto, RobotoDraft, Helvetica, Arial, sans-serif&quot;&gt;mailtrap&lt;/font&gt;" style="text;html=1;strokeColor=#000000;fillColor=#FFFFFF;align=center;verticalAlign=middle;whiteSpace=wrap;rounded=0;labelBorderColor=#FFFFFF;labelBackgroundColor=#FFFFFF;fontColor=#000000;fontSize=13;" vertex="1" parent="1">
                    <mxGeometry x="480" y="560" width="80" height="80" as="geometry"/>
                </mxCell>
            </root>
        </mxGraphModel>
    </diagram>
</mxfile>